<svg width="20" height="20" viewBox="0 0 16 16" fill="none" xmlns="http://www.w3.org/2000/svg">
  <circle cx="1.5" cy="14.5" r="0.5" fill="#1f2328"/>
  <circle cx="7.5" cy="14.5" r="0.5" fill="#1f2328"/>
  <circle cx="7.5" cy="12.5" r="0.5" fill="#1f2328"/>
  <circle cx="3.5" cy="9.5" r="0.5" fill="#1f2328"/>
  <circle cx="1.5" cy="9.5" r="0.5" fill="#1f2328"/>
  <line x1="7.5" y1="12.5" x2="7.5" y2="14.5" stroke="#1f2328"/>
  <line x1="1.5" y1="14.5" x2="7.5" y2="14.5" stroke="#1f2328"/>
  <line x1="1.5" y1="9.5" x2="1.5" y2="14.5" stroke="#1f2328"/>
  <line x1="4" y1="12.5" x2="7.5" y2="12.5" stroke="#1f2328"/>
  <line x1="3.5" y1="9.5" x2="3.5" y2="12" stroke="#1f2328"/>
  <line x1="1.5" y1="9.5" x2="3.5" y2="9.5" stroke="#1f2328"/>
  <path d="M2.5 10C2.22386 10 2 10.2239 2 10.5V10H2.5Z" fill="#1f2328"/>
  <path d="M7 13.5C7 13.2239 6.77614 13 6.5 13H7V13.5Z" fill="#1f2328"/>
  <path d="M3 10.5C3 10.2239 2.77614 10 2.5 10H3V10.5Z" fill="#1f2328"/>
  <path d="M6.5 14C6.77614 14 7 13.7761 7 13.5V14H6.5Z" fill="#1f2328"/>
  <path d="M2 13.5C2 13.7761 2.22386 14 2.5 14H2V13.5Z" fill="#1f2328"/>
  <path d="M4 11C4 11.5523 4.44772 12 5 12C5 12.5523 4.55228 13 4 13C3.44772 13 3 12.5523 3 12C3 11.4477 3.44772 11 4 11Z" fill="#1f2328"/>
  <path d="M1.5 14.5V9.5H3.5V12.5H7.5V14.5H1.5Z" fill="#1f2328" fill-opacity="0.5"/>
  <circle cx="1.5" cy="1.5" r="0.5" transform="rotate(90 1.5 1.5)" fill="#1f2328"/>
  <circle cx="1.5" cy="7.5" r="0.5" transform="rotate(90 1.5 7.5)" fill="#1f2328"/>
  <circle cx="3.5" cy="7.5" r="0.5" transform="rotate(90 3.5 7.5)" fill="#1f2328"/>
  <circle cx="6.5" cy="3.5" r="0.5" transform="rotate(90 6.5 3.5)" fill="#1f2328"/>
  <circle cx="6.5" cy="1.5" r="0.5" transform="rotate(90 6.5 1.5)" fill="#1f2328"/>
  <line x1="3.5" y1="7.5" x2="1.5" y2="7.5" stroke="#1f2328"/>
  <line x1="1.5" y1="1.5" x2="1.5" y2="7.5" stroke="#1f2328"/>
  <line x1="6.5" y1="1.5" x2="1.5" y2="1.5" stroke="#1f2328"/>
  <line x1="3.5" y1="4" x2="3.5" y2="7.5" stroke="#1f2328"/>
  <line x1="6.5" y1="3.5" x2="4" y2="3.5" stroke="#1f2328"/>
  <line x1="6.5" y1="1.5" x2="6.5" y2="3.5" stroke="#1f2328"/>
  <path d="M6 2.5C6 2.22386 5.77614 2 5.5 2H6V2.5Z" fill="#1f2328"/>
  <path d="M2.5 7C2.77614 7 3 6.77614 3 6.5V7H2.5Z" fill="#1f2328"/>
  <path d="M5.5 3C5.77614 3 6 2.77614 6 2.5V3H5.5Z" fill="#1f2328"/>
  <path d="M2 6.5C2 6.77614 2.22386 7 2.5 7H2V6.5Z" fill="#1f2328"/>
  <path d="M2.5 2C2.22386 2 2 2.22386 2 2.5V2H2.5Z" fill="#1f2328"/>
  <path d="M5 4C4.44772 4 4 4.44772 4 5C3.44772 5 3 4.55228 3 4C3 3.44772 3.44772 3 4 3C4.55228 3 5 3.44772 5 4Z" fill="#1f2328"/>
  <path d="M1.5 1.5H6.5V3.5H3.5V7.5H1.5V1.5Z" fill="#1f2328" fill-opacity="0.5"/>
</svg>
